<?xml version="1.0" encoding="UTF-8" standalone="no"?><!DOCTYPE svg PUBLIC "-//W3C//DTD SVG 1.1//EN" "http://www.w3.org/Graphics/SVG/1.1/DTD/svg11.dtd"><svg width="100%" height="100%" viewBox="0 0 192 192" version="1.1" xmlns="http://www.w3.org/2000/svg" xmlns:xlink="http://www.w3.org/1999/xlink" xml:space="preserve" xmlns:serif="http://www.serif.com/" style="fill-rule:evenodd;clip-rule:evenodd;stroke-linecap:round;stroke-linejoin:round;stroke-miterlimit:1.5;"><rect id="Apple-Plan-monochrome" serif:id="Apple Plan monochrome" x="0" y="0" width="192" height="192" style="fill:none;"/><path d="M192,43.599c0,-24.063 -19.536,-43.599 -43.599,-43.599l-104.802,0c-24.063,0 -43.599,19.536 -43.599,43.599l0,104.802c0,24.063 19.536,43.599 43.599,43.599l104.802,-0c24.063,-0 43.599,-19.536 43.599,-43.599l0,-104.802Z" style="fill:none;"/><clipPath id="_clip1"><path d="M192,43.599c0,-24.063 -19.536,-43.599 -43.599,-43.599l-104.802,0c-24.063,0 -43.599,19.536 -43.599,43.599l0,104.802c0,24.063 19.536,43.599 43.599,43.599l104.802,-0c24.063,-0 43.599,-19.536 43.599,-43.599l0,-104.802Z"/></clipPath><g clip-path="url(#_clip1)"><path d="M192,-107.397c59.274,-0 107.397,48.123 107.397,107.397c0,59.274 -48.123,107.397 -107.397,107.397c-59.274,0 -107.397,-48.123 -107.397,-107.397c-0,-59.274 48.123,-107.397 107.397,-107.397Zm0,48.306c32.613,0 59.091,26.478 59.091,59.091c-0,32.613 -26.478,59.091 -59.091,59.091c-32.613,-0 -59.091,-26.478 -59.091,-59.091c0,-32.613 26.478,-59.091 59.091,-59.091Z" style="fill:none;stroke:#000;stroke-width:2.5px;"/><path d="M182.333,151.686l37.04,26.121l-26.478,37.534l-48.481,-34.457c0.771,0.045 1.548,0.068 2.329,0.068c16.188,-0 31.241,-12.591 35.59,-29.266Zm-41.311,-29.152c-4.522,2.524 -8.669,3.497 -14.254,3.506c-4.776,0.007 -8.818,-0.9 -12.863,-2.773c-0.955,-0.455 -2.099,-0.086 -2.607,0.841c-2.744,5.135 -4.777,12.07 -4.777,18.249c-0,4.728 0.43,8.912 2.086,13.078l-31.215,-22.185c0,-0 6.297,-10.132 4.826,-23.089c-1.47,-12.958 -9.631,-19.258 -9.631,-19.258l-0,-16.647l68.435,48.278Zm-117.15,-82.638l-0.405,51.395l-2.433,2.816l-55.207,-38.945l26.478,-37.534l31.567,22.268Z" style="fill:none;stroke:#000;stroke-width:2.5px;"/><path d="M73.815,141.208c-0,-0.935 -0.522,-1.793 -1.354,-2.221c-0.831,-0.429 -1.832,-0.358 -2.595,0.184c-3.32,2.36 -6.884,8.938 -21.649,8.938c-14.765,-0 -18.358,-6.59 -21.65,-8.931c-0.762,-0.542 -1.763,-0.614 -2.595,-0.185c-0.831,0.429 -1.354,1.286 -1.354,2.222l0,50.785c0,1.381 1.12,2.5 2.5,2.5l46.197,0c1.381,0 2.5,-1.119 2.5,-2.5l-0,-50.792Zm-2.5,0l-0,50.792l-46.197,0l0,-50.785c3.505,2.493 7.378,9.394 23.099,9.394c15.721,-0 19.562,-6.887 23.098,-9.401Zm-1.746,-50.334c0.72,0.702 1.79,0.905 2.717,0.514c0.927,-0.391 1.529,-1.298 1.529,-2.304l-0,-89.084c-0,-1.381 -1.119,-2.5 -2.5,-2.5l-46.197,-0c-1.38,-0 -2.5,1.119 -2.5,2.5l0,89.037c0,1.013 0.611,1.925 1.547,2.311c0.936,0.386 2.012,0.17 2.726,-0.548c2.542,-2.556 9.4,-7.546 21.152,-7.546c11.82,-0 18.902,5.06 21.526,7.62Zm1.746,-1.79c-2.841,-2.77 -10.477,-8.33 -23.272,-8.33c-12.756,-0 -20.166,5.509 -22.925,8.283l0,-89.037l46.197,0l-0,89.084Z"/><path d="M62.196,0c-0,-1.381 -1.119,-2.5 -2.5,-2.5l-23.305,-0c-1.381,-0 -2.5,1.119 -2.5,2.5l0,80.754c0,1.381 1.119,2.5 2.5,2.5l23.305,0c1.381,0 2.5,-1.119 2.5,-2.5l-0,-80.754Zm-2.5,-0l-23.305,-0l0,80.754l23.305,0l-0,-80.754Z"/><circle cx="48.217" cy="115.11" r="34.356" style="fill:none;"/><clipPath id="_clip2"><circle cx="48.217" cy="115.11" r="34.356"/></clipPath><g clip-path="url(#_clip2)"><path id="Location--filled-" serif:id="Location (filled)" d="M50.366,96.769c-0.323,-0.838 -1.124,-1.403 -2.015,-1.421c-0.891,-0.019 -1.688,0.514 -2.004,1.339c-3.187,8.308 -9.488,24.732 -13.511,35.22c-0.362,0.944 -0.005,2.029 0.854,2.599c0.86,0.569 1.987,0.467 2.699,-0.245c5.567,-5.567 12.317,-12.318 12.317,-12.318c0,0 6.165,6.166 11.375,11.375c0.725,0.725 1.846,0.859 2.691,0.321c0.845,-0.538 1.186,-1.603 0.819,-2.556c-3.925,-10.183 -10.065,-26.115 -13.225,-34.314Z" style="fill:none;fill-rule:nonzero;stroke:#000;stroke-width:4.17px;stroke-linecap:butt;stroke-miterlimit:2;"/></g><circle cx="48.217" cy="115.11" r="34.356" style="fill:none;stroke:#000;stroke-width:4.17px;"/><path d="M111.763,125.264c0.504,-0.948 1.669,-1.327 2.634,-0.857c3.911,1.851 8.281,2.883 12.89,2.876c6.084,-0.01 11.746,-1.828 16.478,-4.945c0.675,-0.454 1.557,-0.452 2.231,0.004c4.77,3.159 10.491,4.996 16.636,4.987c4.584,-0.007 8.929,-1.041 12.815,-2.883c0.967,-0.472 2.133,-0.092 2.636,0.858c2.637,5.113 4.125,10.91 4.125,17.053c-0,20.583 -16.711,37.295 -37.295,37.295c-20.583,-0 -37.294,-16.712 -37.294,-37.295c-0,-6.158 1.495,-11.97 4.144,-17.093Z" style="fill:none;"/><clipPath id="_clip3"><path d="M111.763,125.264c0.504,-0.948 1.669,-1.327 2.634,-0.857c3.911,1.851 8.281,2.883 12.89,2.876c6.084,-0.01 11.746,-1.828 16.478,-4.945c0.675,-0.454 1.557,-0.452 2.231,0.004c4.77,3.159 10.491,4.996 16.636,4.987c4.584,-0.007 8.929,-1.041 12.815,-2.883c0.967,-0.472 2.133,-0.092 2.636,0.858c2.637,5.113 4.125,10.91 4.125,17.053c-0,20.583 -16.711,37.295 -37.295,37.295c-20.583,-0 -37.294,-16.712 -37.294,-37.295c-0,-6.158 1.495,-11.97 4.144,-17.093Z"/></clipPath><g clip-path="url(#_clip3)"><path d="M112.341,127.054c0.472,-0.98 1.643,-1.401 2.631,-0.945c3.76,1.684 7.929,2.618 12.315,2.611c6.084,-0.01 11.746,-1.828 16.478,-4.945c0.675,-0.454 1.557,-0.452 2.231,0.004c4.77,3.159 10.491,4.997 16.636,4.987c4.359,-0.007 8.501,-0.942 12.24,-2.618c0.988,-0.457 2.161,-0.035 2.632,0.946c2.153,4.61 3.356,9.753 3.356,15.174c-0,19.839 -16.107,35.946 -35.947,35.946c-19.839,0 -35.946,-16.107 -35.946,-35.946c-0,-5.437 1.209,-10.593 3.374,-15.214Z" style="fill:none;"/><path d="M179.222,139.403l0.151,2.743c0,19.19 -15.441,34.769 -34.46,34.769c-19.019,0 -34.46,-15.579 -34.46,-34.769l0.152,-2.743l68.617,0Z" style="fill:none;stroke:#000;stroke-width:1.67px;"/><path d="M110.9,136.856c0.461,-3.365 1.447,-6.564 2.838,-9.534c4.054,1.971 8.618,3.077 13.442,3.069c6.61,-0.01 12.725,-2.107 17.701,-5.656c5.012,3.594 11.187,5.712 17.859,5.702c4.799,-0.007 9.337,-1.115 13.366,-3.078c1.382,2.959 2.362,6.146 2.821,9.497l-68.027,-0Z" style="fill:none;stroke:#000;stroke-width:1.67px;"/><path d="M135.043,162.81l-15.911,-0c0.182,-1.571 0.736,-3.049 1.66,-4.434c0.925,-1.384 2.659,-3.018 5.202,-4.902c1.554,-1.154 2.548,-2.031 2.982,-2.63c0.434,-0.599 0.651,-1.168 0.651,-1.706c-0,-0.582 -0.215,-1.078 -0.645,-1.491c-0.429,-0.412 -0.97,-0.618 -1.621,-0.618c-0.677,-0 -1.23,0.212 -1.66,0.638c-0.43,0.425 -0.718,1.176 -0.866,2.252l-5.312,-0.429c0.208,-1.493 0.59,-2.659 1.145,-3.496c0.556,-0.838 1.339,-1.48 2.351,-1.928c1.011,-0.447 2.411,-0.67 4.199,-0.67c1.866,-0 3.318,0.213 4.355,0.638c1.038,0.425 1.854,1.078 2.448,1.96c0.595,0.881 0.892,1.868 0.892,2.962c0,1.163 -0.34,2.274 -1.022,3.333c-0.681,1.059 -1.92,2.222 -3.717,3.49c-1.068,0.738 -1.782,1.254 -2.142,1.549c-0.36,0.295 -0.784,0.682 -1.27,1.159l8.281,0l0,4.323Z" style="fill-rule:nonzero;"/><path d="M140.499,152.55c-0.833,-0.443 -1.441,-0.938 -1.823,-1.485c-0.521,-0.746 -0.781,-1.606 -0.781,-2.578c0,-1.597 0.751,-2.904 2.253,-3.919c1.172,-0.781 2.721,-1.172 4.648,-1.172c2.552,-0 4.438,0.486 5.658,1.458c1.219,0.972 1.829,2.196 1.829,3.672c0,0.859 -0.243,1.662 -0.729,2.409c-0.365,0.556 -0.938,1.094 -1.719,1.615c1.033,0.494 1.804,1.15 2.311,1.966c0.508,0.816 0.762,1.718 0.762,2.708c0,0.955 -0.219,1.847 -0.657,2.676c-0.439,0.829 -0.977,1.469 -1.615,1.92c-0.638,0.452 -1.432,0.784 -2.383,0.996c-0.95,0.213 -1.964,0.319 -3.04,0.319c-2.023,0 -3.568,-0.238 -4.636,-0.716c-1.067,-0.477 -1.879,-1.18 -2.435,-2.109c-0.555,-0.929 -0.833,-1.966 -0.833,-3.112c0,-1.12 0.261,-2.068 0.781,-2.845c0.521,-0.777 1.324,-1.378 2.409,-1.803Zm2.383,-3.75c0,0.659 0.206,1.191 0.619,1.595c0.412,0.403 0.961,0.605 1.647,0.605c0.607,0 1.106,-0.2 1.497,-0.599c0.391,-0.399 0.586,-0.916 0.586,-1.549c-0,-0.66 -0.204,-1.196 -0.612,-1.608c-0.408,-0.413 -0.929,-0.619 -1.562,-0.619c-0.643,0 -1.166,0.202 -1.569,0.606c-0.404,0.403 -0.606,0.926 -0.606,1.569Zm-0.286,8.216c-0,0.842 0.256,1.53 0.768,2.064c0.512,0.533 1.098,0.8 1.758,0.8c0.633,0 1.202,-0.271 1.705,-0.814c0.504,-0.542 0.756,-1.23 0.756,-2.063c-0,-0.842 -0.254,-1.532 -0.762,-2.071c-0.508,-0.538 -1.096,-0.807 -1.764,-0.807c-0.66,0 -1.235,0.26 -1.726,0.781c-0.49,0.521 -0.735,1.224 -0.735,2.11Z" style="fill-rule:nonzero;"/><path d="M155.096,153.188c-0,-3.629 0.653,-6.168 1.959,-7.618c1.307,-1.449 3.297,-2.174 5.97,-2.174c1.285,-0 2.34,0.158 3.164,0.475c0.825,0.317 1.498,0.729 2.019,1.237c0.52,0.508 0.931,1.042 1.23,1.602c0.3,0.56 0.54,1.213 0.723,1.959c0.356,1.424 0.534,2.908 0.534,4.453c-0,3.464 -0.586,5.999 -1.758,7.605c-1.172,1.606 -3.19,2.408 -6.055,2.408c-1.606,0 -2.904,-0.256 -3.893,-0.768c-0.99,-0.512 -1.801,-1.263 -2.435,-2.252c-0.46,-0.703 -0.818,-1.665 -1.074,-2.884c-0.256,-1.22 -0.384,-2.568 -0.384,-4.043Zm5.26,0.013c-0,2.43 0.215,4.09 0.645,4.98c0.429,0.89 1.052,1.335 1.868,1.335c0.538,-0 1.005,-0.189 1.4,-0.567c0.395,-0.377 0.686,-0.974 0.872,-1.79c0.187,-0.816 0.28,-2.088 0.28,-3.815c0,-2.535 -0.215,-4.238 -0.644,-5.111c-0.43,-0.872 -1.075,-1.308 -1.934,-1.308c-0.877,-0 -1.51,0.444 -1.901,1.334c-0.391,0.89 -0.586,2.537 -0.586,4.942Z" style="fill-rule:nonzero;"/></g><path d="M109.543,124.116c-2.827,5.467 -4.424,11.669 -4.424,18.241c-0,21.963 17.831,39.795 39.794,39.795c21.964,-0 39.795,-17.832 39.795,-39.795c-0,-6.555 -1.589,-12.743 -4.403,-18.199c-1.146,-2.167 -3.777,-3.023 -5.955,-1.958c-3.536,1.676 -7.519,2.623 -11.722,2.629c-5.634,0.009 -10.878,-1.675 -15.252,-4.572c-1.496,-1.013 -3.485,-1.016 -5.006,0.006c-4.318,2.845 -9.509,4.511 -15.087,4.52c-4.225,0.006 -8.232,-0.939 -11.816,-2.635c-2.15,-1.049 -4.776,-0.195 -5.911,1.943l-0.013,0.025Zm2.22,1.148c0.504,-0.948 1.669,-1.327 2.634,-0.857c3.911,1.851 8.281,2.883 12.89,2.876c6.084,-0.01 11.746,-1.828 16.478,-4.945c0.675,-0.454 1.557,-0.452 2.231,0.004c4.77,3.159 10.491,4.996 16.636,4.987c4.584,-0.007 8.929,-1.041 12.815,-2.883c0.967,-0.472 2.133,-0.092 2.636,0.858c2.637,5.113 4.125,10.91 4.125,17.053c-0,20.583 -16.711,37.295 -37.295,37.295c-20.583,-0 -37.294,-16.712 -37.294,-37.295c-0,-6.158 1.495,-11.97 4.144,-17.093Z"/></g><path d="M192,43.599c0,-24.063 -19.536,-43.599 -43.599,-43.599l-104.802,0c-24.063,0 -43.599,19.536 -43.599,43.599l0,104.802c0,24.063 19.536,43.599 43.599,43.599l104.802,-0c24.063,-0 43.599,-19.536 43.599,-43.599l0,-104.802Zm-5.833,0l-0,104.802c-0,20.843 -16.923,37.766 -37.766,37.766c-0,-0 -104.802,-0 -104.802,-0c-20.843,-0 -37.766,-16.923 -37.766,-37.766l0,-104.802c0,-20.843 16.923,-37.766 37.766,-37.766c0,0 104.802,0 104.802,0c20.843,0 37.766,16.923 37.766,37.766Z"/></svg>