<?xml version="1.0" encoding="UTF-8" standalone="no"?>
<!DOCTYPE svg PUBLIC "-//W3C//DTD SVG 1.1//EN" "http://www.w3.org/Graphics/SVG/1.1/DTD/svg11.dtd">
<svg width="100%" height="100%" viewBox="0 0 192 192" version="1.1" xmlns="http://www.w3.org/2000/svg" xmlns:xlink="http://www.w3.org/1999/xlink" xml:space="preserve" xmlns:serif="http://www.serif.com/" style="fill-rule:evenodd;clip-rule:evenodd;stroke-linecap:round;stroke-linejoin:round;stroke-miterlimit:1.5;">
    <g transform="matrix(1,0,0,1,-209.117,-224.926)">
        <g transform="matrix(1,0,0,1,-191.216,224.926)">
            <g transform="matrix(1,0,0,1.01517,191.216,0)">
                <path d="M401.117,42.947C401.117,19.244 381.581,0 357.518,0L252.717,0C228.654,0 209.117,19.244 209.117,42.947L209.117,146.183C209.117,169.886 228.654,189.13 252.717,189.13L357.518,189.13C381.581,189.13 401.117,169.886 401.117,146.183L401.117,42.947Z" style="fill:none;"/>
                <clipPath id="_clip1">
                    <path d="M401.117,42.947C401.117,19.244 381.581,0 357.518,0L252.717,0C228.654,0 209.117,19.244 209.117,42.947L209.117,146.183C209.117,169.886 228.654,189.13 252.717,189.13L357.518,189.13C381.581,189.13 401.117,169.886 401.117,146.183L401.117,42.947Z"/>
                </clipPath>
                <g clip-path="url(#_clip1)">
                    <g transform="matrix(0.826303,0,0,0.813952,95.6034,-20.5201)">
                        <path d="M369.736,-104.763C441.47,-104.763 499.709,-46.524 499.709,25.211C499.709,96.945 441.47,155.184 369.736,155.184C298.002,155.184 239.763,96.945 239.763,25.211C239.763,-46.524 298.002,-104.763 369.736,-104.763ZM369.736,-46.301C409.205,-46.301 441.248,-14.258 441.248,25.211C441.248,64.679 409.205,96.722 369.736,96.722C330.268,96.722 298.224,64.679 298.224,25.211C298.224,-14.258 330.268,-46.301 369.736,-46.301Z" style="fill:none;stroke:black;stroke-width:3.03px;"/>
                    </g>
                    <g transform="matrix(1,0,0,0.985053,0,-221.564)">
                        <path d="M391.45,376.612L428.49,402.732L402.012,440.267L353.531,405.81C354.303,405.855 355.079,405.877 355.861,405.877C372.049,405.877 387.101,393.286 391.45,376.612ZM350.14,347.46C345.617,349.983 341.47,350.957 335.885,350.965C331.11,350.972 327.067,350.065 323.022,348.192C322.068,347.737 320.924,348.106 320.416,349.034C317.672,354.169 315.638,361.104 315.638,367.282C315.638,372.01 316.068,376.195 317.724,380.361L286.51,358.176C286.51,358.176 292.806,348.044 291.336,335.086C289.865,322.129 281.704,315.828 281.704,315.828L281.704,299.182L350.14,347.46ZM232.99,264.822L232.584,316.217L230.152,319.032L174.944,280.088L201.422,242.553L232.99,264.822Z" style="fill:none;stroke:black;stroke-width:2.5px;"/>
                    </g>
                    <g transform="matrix(1,0,0,0.985053,0,-221.564)">
                        <path d="M282.932,366.134C282.932,365.198 282.41,364.341 281.579,363.912C280.747,363.483 279.746,363.554 278.984,364.096C275.663,366.457 272.099,373.034 257.334,373.034C242.569,373.034 238.976,366.444 235.685,364.103C234.922,363.561 233.921,363.49 233.09,363.919C232.258,364.348 231.736,365.205 231.736,366.141L231.736,416.926C231.736,418.306 232.855,419.426 234.236,419.426L280.432,419.426C281.813,419.426 282.932,418.306 282.932,416.926L282.932,366.134ZM280.432,366.134L280.432,416.926L234.236,416.926L234.236,366.141C237.74,368.633 241.613,375.534 257.334,375.534C273.055,375.534 276.897,368.647 280.432,366.134ZM278.687,315.8C279.407,316.502 280.477,316.704 281.403,316.314C282.33,315.923 282.932,315.015 282.932,314.01L282.932,224.926C282.932,223.545 281.813,222.426 280.432,222.426L234.236,222.426C232.855,222.426 231.736,223.545 231.736,224.926L231.736,313.963C231.736,314.975 232.347,315.888 233.282,316.274C234.218,316.66 235.295,316.443 236.009,315.725C238.55,313.169 245.408,308.179 257.161,308.179C268.981,308.179 276.063,313.24 278.687,315.8ZM280.432,314.01C277.592,311.239 269.955,305.679 257.161,305.679C244.405,305.679 236.995,311.188 234.236,313.963L234.236,224.926L280.432,224.926L280.432,314.01Z"/>
                    </g>
                    <g transform="matrix(1.03721,0,0,0.966138,-10.0028,1.89212e-15)">
                        <path d="M271.224,0C271.224,-1.408 270.144,-2.549 268.813,-2.549L246.345,-2.549C245.013,-2.549 243.934,-1.408 243.934,-0L243.934,82.335C243.934,83.743 245.013,84.884 246.345,84.884L268.813,84.884C270.144,84.884 271.224,83.743 271.224,82.335L271.224,0ZM268.813,-0L246.345,-0L246.345,82.335L268.813,82.335L268.813,-0Z"/>
                    </g>
                    <g transform="matrix(1,0,0,0.985053,0.17321,-1.35395)">
                        <circle cx="257.161" cy="116.484" r="34.356" style="fill:none;"/>
                        <clipPath id="_clip2">
                            <circle cx="257.161" cy="116.484" r="34.356"/>
                        </clipPath>
                        <g clip-path="url(#_clip2)">
                            <g id="Location--filled-" serif:id="Location (filled)" transform="matrix(0.751774,-0.751774,0.770298,0.770298,-278.279,-96.4151)">
                                <path d="M228.147,475.236C228.49,474.483 228.333,473.596 227.752,473.006C227.172,472.416 226.288,472.244 225.529,472.574C217.884,475.898 202.769,482.47 193.119,486.666C192.25,487.044 191.765,487.98 191.958,488.907C192.151,489.835 192.968,490.5 193.916,490.5C201.321,490.5 210.3,490.5 210.3,490.5L210.3,505.267C210.3,506.208 210.957,507.022 211.877,507.221C212.797,507.421 213.731,506.951 214.121,506.094C218.283,496.936 224.796,482.61 228.147,475.236Z" style="fill:none;fill-rule:nonzero;stroke:black;stroke-width:3.87px;stroke-linecap:butt;stroke-miterlimit:2;"/>
                            </g>
                        </g>
                        <circle cx="257.161" cy="116.484" r="34.356" style="fill:none;stroke:black;stroke-width:4.17px;"/>
                    </g>
                    <g transform="matrix(1,0,0,0.985053,0,0)">
                        <path d="M320.881,125.264C321.385,124.316 322.549,123.937 323.515,124.407C327.425,126.258 331.795,127.29 336.404,127.283C342.488,127.273 348.15,125.455 352.882,122.338C353.557,121.884 354.44,121.886 355.113,122.342C359.884,125.501 365.604,127.338 371.75,127.329C376.334,127.322 380.678,126.288 384.565,124.446C385.531,123.974 386.698,124.354 387.201,125.304C389.837,130.417 391.325,136.214 391.325,142.357C391.325,162.94 374.614,179.652 354.031,179.652C333.447,179.652 316.736,162.94 316.736,142.357C316.736,136.199 318.232,130.387 320.881,125.264Z" style="fill:none;"/>
                        <clipPath id="_clip3">
                            <path d="M320.881,125.264C321.385,124.316 322.549,123.937 323.515,124.407C327.425,126.258 331.795,127.29 336.404,127.283C342.488,127.273 348.15,125.455 352.882,122.338C353.557,121.884 354.44,121.886 355.113,122.342C359.884,125.501 365.604,127.338 371.75,127.329C376.334,127.322 380.678,126.288 384.565,124.446C385.531,123.974 386.698,124.354 387.201,125.304C389.837,130.417 391.325,136.214 391.325,142.357C391.325,162.94 374.614,179.652 354.031,179.652C333.447,179.652 316.736,162.94 316.736,142.357C316.736,136.199 318.232,130.387 320.881,125.264Z"/>
                        </clipPath>
                        <g clip-path="url(#_clip3)">
                            <g transform="matrix(1,0,0,1,5.68434e-14,-0.0889272)">
                                <path d="M321.458,127.143C321.931,126.163 323.102,125.742 324.089,126.198C327.85,127.882 332.019,128.816 336.404,128.809C342.488,128.799 348.15,126.981 352.882,123.864C353.557,123.41 354.44,123.412 355.113,123.868C359.884,127.027 365.604,128.864 371.75,128.855C376.108,128.848 380.25,127.913 383.989,126.237C384.978,125.78 386.15,126.201 386.621,127.183C388.775,131.793 389.977,136.936 389.977,142.357C389.977,162.196 373.87,178.303 354.031,178.303C334.191,178.303 318.084,162.196 318.084,142.357C318.084,136.92 319.294,131.764 321.458,127.143Z" style="fill:none;"/>
                            </g>
                            <g transform="matrix(1.00607,0,0,0.989398,-2.1485,1.2981)">
                                <path d="M388.132,139.585L388.283,142.357C388.283,161.752 372.935,177.499 354.031,177.499C335.126,177.499 319.779,161.752 319.779,142.357L319.93,139.585L388.132,139.585Z" style="fill:none;stroke:black;stroke-width:1.67px;"/>
                            </g>
                            <g transform="matrix(1.00607,0,0,0.989398,-2.1485,1.2981)">
                                <path d="M320.222,137.01C320.681,133.61 321.661,130.376 323.044,127.374C327.073,129.367 331.609,130.484 336.404,130.477C342.975,130.466 349.053,128.347 353.999,124.76C358.981,128.392 365.118,130.533 371.75,130.523C376.52,130.515 381.031,129.396 385.035,127.412C386.409,130.402 387.383,133.624 387.839,137.01L320.222,137.01Z" style="fill:none;stroke:black;stroke-width:1.67px;"/>
                            </g>
                            <g transform="matrix(1.11068,0,0,1.11068,-41.1163,-17.7041)">
                                <text x="331.924px" y="162.525px" style="font-family:'Arial-Black', 'Arial', sans-serif;font-weight:900;font-size:24.009px;">280</text>
                            </g>
                        </g>
                        <path d="M318.66,124.116C315.833,129.583 314.236,135.785 314.236,142.357C314.236,164.32 332.067,182.152 354.031,182.152C375.994,182.152 393.825,164.32 393.825,142.357C393.825,135.802 392.236,129.614 389.422,124.158C388.276,121.991 385.646,121.135 383.467,122.2C379.931,123.876 375.948,124.823 371.746,124.829C366.112,124.838 360.867,123.154 356.494,120.257C354.998,119.244 353.008,119.241 351.487,120.263C347.169,123.108 341.978,124.774 336.4,124.783C332.175,124.789 328.169,123.844 324.584,122.148C322.434,121.099 319.809,121.953 318.673,124.091L318.66,124.116ZM320.881,125.264C321.385,124.316 322.549,123.937 323.515,124.407C327.425,126.258 331.795,127.29 336.404,127.283C342.488,127.273 348.15,125.455 352.882,122.338C353.557,121.884 354.44,121.886 355.113,122.342C359.884,125.501 365.604,127.338 371.75,127.329C376.334,127.322 380.678,126.288 384.565,124.446C385.531,123.974 386.698,124.354 387.201,125.304C389.837,130.417 391.325,136.214 391.325,142.357C391.325,162.94 374.614,179.652 354.031,179.652C333.447,179.652 316.736,162.94 316.736,142.357C316.736,136.199 318.232,130.387 320.881,125.264Z"/>
                    </g>
                </g>
                <path d="M401.117,42.947C401.117,19.244 381.581,0 357.518,0L252.717,0C228.654,0 209.117,19.244 209.117,42.947L209.117,146.183C209.117,169.886 228.654,189.13 252.717,189.13L357.518,189.13C381.581,189.13 401.117,169.886 401.117,146.183L401.117,42.947ZM395.284,42.947L395.284,146.183C395.284,166.715 378.362,183.384 357.518,183.384C357.518,183.384 252.717,183.384 252.717,183.384C231.873,183.384 214.951,166.715 214.951,146.183L214.951,42.947C214.951,22.415 231.873,5.746 252.717,5.746C252.717,5.746 357.518,5.746 357.518,5.746C378.362,5.746 395.284,22.415 395.284,42.947Z"/>
            </g>
        </g>
    </g>
</svg>
