<?xml version="1.0" encoding="UTF-8" standalone="no"?><!DOCTYPE svg PUBLIC "-//W3C//DTD SVG 1.1//EN" "http://www.w3.org/Graphics/SVG/1.1/DTD/svg11.dtd"><svg width="100%" height="100%" viewBox="0 0 192 192" version="1.1" xmlns="http://www.w3.org/2000/svg" xmlns:xlink="http://www.w3.org/1999/xlink" xml:space="preserve" xmlns:serif="http://www.serif.com/" style="fill-rule:evenodd;clip-rule:evenodd;stroke-linecap:round;stroke-linejoin:round;stroke-miterlimit:1.5;"><rect id="Google-Maps-monochrome" serif:id="Google Maps monochrome" x="0" y="0" width="192" height="192" style="fill:none;"/><clipPath id="_clip1"><rect x="0" y="0" width="192" height="192"/></clipPath><g clip-path="url(#_clip1)"><path d="M29.415,66.172c0.231,-36.561 29.985,-66.172 66.601,-66.172c36.759,0 66.602,29.844 66.602,66.603c0,-0 0.483,19.684 -8.868,37.06c-9.35,17.377 -36.189,46.241 -43.467,61.09c-11.407,23.276 -7.13,27.247 -13.965,27.247c-6.836,0 -3.209,-4.643 -14.506,-27.247c-8.446,-16.898 -32.968,-42.065 -43.244,-61.09c-10.276,-19.025 -9.155,-37.06 -9.155,-37.06l0.002,-0.431Zm66.903,-26.185c14.282,0 25.878,11.596 25.878,25.879c0,14.283 -11.596,25.879 -25.878,25.879c-14.283,-0 -25.879,-11.596 -25.879,-25.879c-0,-14.283 11.596,-25.879 25.879,-25.879Z" style="fill:none;"/><clipPath id="_clip2"><path d="M29.415,66.172c0.231,-36.561 29.985,-66.172 66.601,-66.172c36.759,0 66.602,29.844 66.602,66.603c0,-0 0.483,19.684 -8.868,37.06c-9.35,17.377 -36.189,46.241 -43.467,61.09c-11.407,23.276 -7.13,27.247 -13.965,27.247c-6.836,0 -3.209,-4.643 -14.506,-27.247c-8.446,-16.898 -32.968,-42.065 -43.244,-61.09c-10.276,-19.025 -9.155,-37.06 -9.155,-37.06l0.002,-0.431Zm66.903,-26.185c14.282,0 25.878,11.596 25.878,25.879c0,14.283 -11.596,25.879 -25.878,25.879c-14.283,-0 -25.879,-11.596 -25.879,-25.879c-0,-14.283 11.596,-25.879 25.879,-25.879Z"/></clipPath><g clip-path="url(#_clip2)"><path d="M213.285,72.791l-52.229,-43.825l-108.759,129.614l52.229,43.825l108.759,-129.614Z" style="fill:none;"/><path d="M110.816,77.994l-143.17,-120.133l-43.791,52.188l143.169,120.134l43.792,-52.189Z" style="fill:none;"/><path d="M76.273,49.501l39.641,33.263l-60.687,72.325l-39.641,-33.263l60.687,-72.325Z" style="fill:none;stroke:#000;stroke-width:2.5px;"/><path d="M120.066,-2.686l-43.792,52.188l-104.33,-87.543l43.792,-52.188l104.33,87.543Z" style="fill:none;stroke:#000;stroke-width:2.5px;"/><path d="M159.706,30.576l-43.792,52.188l-39.641,-33.263l43.791,-52.188l39.642,33.263Z" style="fill:none;stroke:#000;stroke-width:2.5px;"/></g><path d="M29.415,66.172c0.231,-36.561 29.985,-66.172 66.601,-66.172c36.759,0 66.602,29.844 66.602,66.603c0,-0 0.483,19.684 -8.868,37.06c-9.35,17.377 -36.189,46.241 -43.467,61.09c-11.407,23.276 -7.13,27.247 -13.965,27.247c-6.836,0 -3.209,-4.643 -14.506,-27.247c-8.446,-16.898 -32.968,-42.065 -43.244,-61.09c-10.276,-19.025 -9.155,-37.06 -9.155,-37.06l0.002,-0.431Zm66.722,110.539c1.528,-4.209 3.706,-9.591 6.663,-15.625c7.308,-14.911 34.223,-43.923 43.612,-61.372c8.303,-15.429 7.876,-32.907 7.873,-33.111c0,-32.16 -26.109,-58.27 -58.269,-58.27c-32.034,0 -58.066,25.906 -58.268,57.889l-0.001,0.407c-0.001,0.164 -0.006,0.327 -0.016,0.491c-0,-0 -0.874,15.842 8.169,32.583c10.312,19.092 34.89,44.367 43.366,61.325c3.006,6.015 5.271,11.456 6.871,15.683Zm0.181,-145.057c-18.883,-0 -34.212,15.33 -34.212,34.212c-0,18.882 15.329,34.212 34.212,34.212c18.882,0 34.212,-15.33 34.212,-34.212c-0,-18.882 -15.33,-34.212 -34.212,-34.212Zm-0,8.333c14.282,0 25.878,11.596 25.878,25.879c0,14.283 -11.596,25.879 -25.878,25.879c-14.283,-0 -25.879,-11.596 -25.879,-25.879c-0,-14.283 11.596,-25.879 25.879,-25.879Z"/></g></svg>