<?xml version="1.0" encoding="UTF-8" standalone="no"?>
<!DOCTYPE svg PUBLIC "-//W3C//DTD SVG 1.1//EN" "http://www.w3.org/Graphics/SVG/1.1/DTD/svg11.dtd">
<svg width="100%" height="100%" viewBox="0 0 134 192" version="1.1" xmlns="http://www.w3.org/2000/svg" xmlns:xlink="http://www.w3.org/1999/xlink" xml:space="preserve" xmlns:serif="http://www.serif.com/" style="fill-rule:evenodd;clip-rule:evenodd;stroke-linecap:round;stroke-linejoin:round;stroke-miterlimit:1.5;">
    <g transform="matrix(1,0,0,1,-29.3773,-224.926)">
        <g transform="matrix(1,0,0,1,0,224.926)">
            <g transform="matrix(2.12395,0,0,2.12395,-107.581,-110.3)">
                <path d="M64.501,83.087C64.61,65.873 78.619,51.932 95.858,51.932C113.165,51.932 127.216,65.983 127.216,83.29C127.216,83.29 127.443,92.557 123.041,100.738C118.638,108.92 106.002,122.51 102.575,129.501C97.205,140.46 99.218,142.329 96,142.329C92.782,142.329 94.489,140.143 89.17,129.501C85.194,121.545 73.648,109.696 68.81,100.738C63.972,91.781 64.5,83.29 64.5,83.29L64.501,83.087ZM96,70.758C102.725,70.758 108.184,76.218 108.184,82.943C108.184,89.667 102.725,95.127 96,95.127C89.275,95.127 83.816,89.667 83.816,82.943C83.816,76.218 89.275,70.758 96,70.758Z" style="fill:none;"/>
                <clipPath id="_clip1">
                    <path d="M64.501,83.087C64.61,65.873 78.619,51.932 95.858,51.932C113.165,51.932 127.216,65.983 127.216,83.29C127.216,83.29 127.443,92.557 123.041,100.738C118.638,108.92 106.002,122.51 102.575,129.501C97.205,140.46 99.218,142.329 96,142.329C92.782,142.329 94.489,140.143 89.17,129.501C85.194,121.545 73.648,109.696 68.81,100.738C63.972,91.781 64.5,83.29 64.5,83.29L64.501,83.087ZM96,70.758C102.725,70.758 108.184,76.218 108.184,82.943C108.184,89.667 102.725,95.127 96,95.127C89.275,95.127 83.816,89.667 83.816,82.943C83.816,76.218 89.275,70.758 96,70.758Z"/>
                </clipPath>
                <g clip-path="url(#_clip1)">
                    <g transform="matrix(1.49846,1.25736,-1.1707,1.39519,140.423,-156.171)">
                        <rect x="67.405" y="98.186" width="16.41" height="43.74" style="fill:none;"/>
                    </g>
                    <g transform="matrix(0.766044,0.642788,-0.642788,0.766044,66.6003,-113.227)">
                        <rect x="69.523" y="131.364" width="87.994" height="32.076" style="fill:none;"/>
                    </g>
                    <g transform="matrix(1.13732,0.954324,-1.1707,1.39519,147.481,-153.05)">
                        <rect x="67.405" y="117.519" width="16.41" height="24.407" style="fill:none;stroke:black;stroke-width:0.71px;"/>
                    </g>
                    <g transform="matrix(0.772182,0.647937,-0.642788,0.766044,88.8154,-136.227)">
                        <rect x="69.523" y="131.364" width="63.613" height="32.076" style="fill:none;stroke:black;stroke-width:1.17px;"/>
                    </g>
                    <g transform="matrix(0.772172,0.647929,-0.642788,0.766044,88.8161,-136.227)">
                        <rect x="133.136" y="131.364" width="24.171" height="32.076" style="fill:none;stroke:black;stroke-width:1.17px;"/>
                    </g>
                </g>
                <path d="M64.501,83.087C64.61,65.873 78.619,51.932 95.858,51.932C113.165,51.932 127.216,65.983 127.216,83.29C127.216,83.29 127.443,92.557 123.041,100.738C118.638,108.92 106.002,122.51 102.575,129.501C97.205,140.46 99.218,142.329 96,142.329C92.782,142.329 94.489,140.143 89.17,129.501C85.194,121.545 73.648,109.696 68.81,100.738C63.972,91.781 64.5,83.29 64.5,83.29L64.501,83.087ZM95.915,135.131C96.634,133.149 97.66,130.616 99.052,127.774C102.493,120.754 115.165,107.095 119.586,98.879C123.495,91.615 123.294,83.386 123.292,83.29C123.292,68.148 110.999,55.855 95.858,55.855C80.776,55.855 68.519,68.052 68.424,83.11L68.423,83.302C68.423,83.379 68.421,83.456 68.416,83.533C68.416,83.533 68.005,90.992 72.262,98.874C77.117,107.863 88.689,119.763 92.68,127.747C94.095,130.579 95.162,133.141 95.915,135.131ZM96,66.835C87.11,66.835 79.892,74.053 79.892,82.943C79.892,91.833 87.11,99.05 96,99.05C104.89,99.05 112.108,91.833 112.108,82.943C112.108,74.053 104.89,66.835 96,66.835ZM96,70.758C102.725,70.758 108.184,76.218 108.184,82.943C108.184,89.667 102.725,95.127 96,95.127C89.275,95.127 83.816,89.667 83.816,82.943C83.816,76.218 89.275,70.758 96,70.758Z"/>
            </g>
        </g>
    </g>
</svg>
