<svg width="100%" height="100%" viewBox="0 0 21 21" version="1.1" xmlns="http://www.w3.org/2000/svg" xmlns:xlink="http://www.w3.org/1999/xlink" xml:space="preserve" xmlns:serif="http://www.serif.com/" style="fill-rule:evenodd;clip-rule:evenodd;stroke-linecap:round;stroke-linejoin:round;stroke-miterlimit:1.5;"><g><g transform="matrix(1.06545,0,0,1,-0.351703,8.88178e-16)"><rect x="4.956" y="2.5" width="10.459" height="16" style="fill:none;stroke:rgb(42,46,59);stroke-width:0.97px;"/></g><path d="M4.928,10.5l11.144,0" style="fill:none;stroke:rgb(42,46,59);stroke-width:1px;"/><g transform="matrix(1,0,0,1,0.0410691,0)"><rect x="7.447" y="2.5" width="6.023" height="2.565" style="fill:none;stroke:rgb(42,46,59);stroke-width:1px;"/></g><g transform="matrix(1,0,0,1,0.0410691,13.4348)"><rect x="7.447" y="2.5" width="6.023" height="2.565" style="fill:none;stroke:rgb(42,46,59);stroke-width:1px;"/></g><g transform="matrix(-1,1.22465e-16,-1.22465e-16,-1,21,10.1304)"><path d="M8.775,5.065c0,-0.952 0.773,-1.725 1.725,-1.725c0.952,0 1.725,0.773 1.725,1.725l-3.45,0Z" style="fill:none;stroke:rgb(42,46,59);stroke-width:1px;"/></g><g transform="matrix(1,-2.44929e-16,2.44929e-16,1,-1.77636e-15,10.8696)"><path d="M8.775,5.065c0,-0.952 0.773,-1.725 1.725,-1.725c0.952,0 1.725,0.773 1.725,1.725l-3.45,0Z" style="fill:none;stroke:rgb(42,46,59);stroke-width:1px;"/></g><g transform="matrix(1,0,0,1,0.204889,0)"><rect x="9.058" y="2.5" width="2.475" height="1.283" style="fill:none;stroke:rgb(42,46,59);stroke-width:1px;"/></g><g transform="matrix(1,0,0,1,0.204889,14.7174)"><rect x="9.058" y="2.5" width="2.475" height="1.283" style="fill:none;stroke:rgb(42,46,59);stroke-width:1px;"/></g><circle cx="10.5" cy="10.5" r="1.985" style="fill:none;stroke:rgb(42,46,59);stroke-width:1px;"/></g></svg>