<?xml version="1.0" encoding="UTF-8" standalone="no"?><!DOCTYPE svg PUBLIC "-//W3C//DTD SVG 1.1//EN" "http://www.w3.org/Graphics/SVG/1.1/DTD/svg11.dtd"><svg width="100%" height="100%" viewBox="0 0 192 192" version="1.1" xmlns="http://www.w3.org/2000/svg" xmlns:xlink="http://www.w3.org/1999/xlink" xml:space="preserve" xmlns:serif="http://www.serif.com/" style="fill-rule:evenodd;clip-rule:evenodd;stroke-linejoin:round;stroke-miterlimit:2;"><rect id="Waze-monochrome" serif:id="Waze monochrome" x="0" y="0" width="192" height="192" style="fill:none;"/><clipPath id="_clip1"><rect x="0" y="0" width="192" height="192"/></clipPath><g clip-path="url(#_clip1)"><path d="M19.425,90.765c-0.044,-1.131 0.075,-3.554 0.075,-4.691c0,-47.57 38.739,-86.074 86.309,-86.074c47.57,0 86.191,38.621 86.191,86.191c0,47.57 -38.621,86.191 -86.191,86.191c-0,0 -47.967,3.987 -72.256,-11.436c-28.75,-18.256 -33.671,-37.007 -33.553,-41.838c0.051,-2.107 1.239,-3.284 3.226,-3.73c5.839,-1.311 5.752,0.105 11.648,-4.219c5.627,-4.126 4.564,-14.175 4.551,-20.394Zm-8.018,33.287c0.284,0.65 0.616,1.349 0.994,2.094c3.637,7.18 11.401,16.763 26.512,26.358c8.557,5.433 20.514,7.913 31.705,9.195c18.029,2.065 34.363,0.718 34.363,0.718l0.828,9.965l-0,-10c42.051,0 76.191,-34.14 76.191,-76.191c0,-42.051 -34.14,-76.191 -76.191,-76.191c-42.051,0 -76.309,34.023 -76.309,76.074c0,1.042 -0.123,3.264 -0.082,4.301c0.005,0.123 0.007,0.246 0.007,0.369c0.009,4.311 0.327,10.21 -0.722,15.274c-1.133,5.466 -3.704,10.117 -7.915,13.205c-5.039,3.695 -6.744,4.363 -9.381,4.829Z"/><circle cx="86.428" cy="67.293" r="9.572"/><circle cx="144.388" cy="67.293" r="9.572"/><path d="M141.309,98.46c1.028,-2.123 3.466,-3.162 5.71,-2.432c0.012,-0.036 0.013,-0.036 0.014,-0.035c1.367,0.445 2.474,1.461 3.035,2.785c0.561,1.324 0.519,2.826 -0.113,4.118c-6.378,12.704 -19.521,21.453 -34.692,21.453c-15.171,-0 -28.315,-8.749 -34.656,-21.471c-0.627,-1.281 -0.668,-2.771 -0.112,-4.084c0.556,-1.314 1.654,-2.321 3.01,-2.763c-0.012,-0.039 -0.011,-0.039 -0.01,-0.039c2.261,-0.736 4.719,0.311 5.755,2.452c4.701,9.618 14.591,16.23 26.013,16.23c11.422,0 21.312,-6.612 26.046,-16.214Z"/><circle cx="62.633" cy="167.924" r="24.076"/><path d="M150.092,154.839c2.446,3.768 3.868,8.262 3.868,13.085c-0,13.288 -10.788,24.076 -24.076,24.076c-13.287,0 -24.075,-10.788 -24.075,-24.076c-0,0 44.283,-13.085 44.283,-13.085Z"/></g></svg>