<?xml version="1.0" encoding="UTF-8" standalone="no"?>
<!DOCTYPE svg PUBLIC "-//W3C//DTD SVG 1.1//EN" "http://www.w3.org/Graphics/SVG/1.1/DTD/svg11.dtd">
<svg width="100%" height="100%" viewBox="0 0 193 192" version="1.1" xmlns="http://www.w3.org/2000/svg" xmlns:xlink="http://www.w3.org/1999/xlink" xml:space="preserve" xmlns:serif="http://www.serif.com/" style="fill-rule:evenodd;clip-rule:evenodd;stroke-linejoin:round;stroke-miterlimit:2;">
    <g transform="matrix(1,0,0,1,-419.571,-224.926)">
        <g transform="matrix(1,0,0,1,-189.877,224.926)">
            <g transform="matrix(1,0,0,1,189.877,0)">
                <path d="M438.999,90.765C438.955,89.634 439.074,87.211 439.074,86.074C439.074,38.504 477.812,0 525.382,0C572.953,0 611.573,38.621 611.573,86.191C611.573,133.761 572.953,172.382 525.382,172.382C525.382,172.382 477.415,176.369 453.127,160.946C424.376,142.69 419.456,123.939 419.573,119.108C419.625,117.001 420.812,115.824 422.8,115.378C428.638,114.067 428.551,115.483 434.448,111.159C440.075,107.033 439.012,96.984 438.999,90.765ZM430.98,124.052C431.265,124.702 431.597,125.401 431.974,126.146C435.611,133.326 443.376,142.909 458.487,152.504C467.043,157.937 479,160.417 490.191,161.699C508.221,163.764 524.554,162.417 524.554,162.417L525.382,172.382L525.382,162.382C567.433,162.382 601.573,128.242 601.573,86.191C601.573,44.14 567.433,10 525.382,10C483.331,10 449.074,44.023 449.074,86.074C449.074,87.116 448.951,89.338 448.991,90.375C448.996,90.498 448.999,90.621 448.999,90.744C449.008,95.055 449.326,100.954 448.276,106.018C447.144,111.484 444.573,116.135 440.361,119.223C435.323,122.918 433.618,123.586 430.98,124.052Z"/>
            </g>
            <g transform="matrix(1.30914,0,0,1.30914,23.5138,-26.5304)">
                <circle cx="513.594" cy="71.668" r="7.312"/>
            </g>
            <g transform="matrix(1.30914,0,0,1.30914,81.4737,-26.5304)">
                <circle cx="513.594" cy="71.668" r="7.312"/>
            </g>
            <g transform="matrix(1,0,0,1,189.877,0)">
                <path d="M560.883,98.46C561.91,96.337 564.349,95.298 566.592,96.028C566.605,95.992 566.606,95.992 566.606,95.993C567.974,96.438 569.081,97.454 569.642,98.778C570.202,100.102 570.161,101.604 569.529,102.896C563.151,115.6 550.007,124.349 534.836,124.349C519.665,124.349 506.522,115.6 500.18,102.878C499.553,101.597 499.512,100.107 500.068,98.794C500.624,97.48 501.722,96.473 503.078,96.031C503.067,95.992 503.067,95.992 503.068,95.992C505.33,95.256 507.787,96.303 508.823,98.444C513.524,108.062 523.414,114.674 534.836,114.674C546.258,114.674 556.148,108.062 560.883,98.46Z"/>
            </g>
            <g transform="matrix(1.19182,0,0,1.19182,-36.3734,-53.9455)">
                <circle cx="594.433" cy="186.16" r="20.201"/>
            </g>
            <g transform="matrix(1,0,0,1,189.877,-224.926)">
                <path d="M569.665,379.764C572.112,383.533 573.533,388.027 573.533,392.85C573.533,406.138 562.746,416.926 549.458,416.926C536.17,416.926 525.382,406.138 525.382,392.85C525.382,392.85 569.665,379.764 569.665,379.764Z"/>
            </g>
        </g>
    </g>
</svg>
